<?xml version="1.0" encoding="UTF-8"?>
<svg id="Capa_1" xmlns="http://www.w3.org/2000/svg" version="1.1" viewBox="0 0 32 32">
  <!-- Generator: Adobe Illustrator 29.6.1, SVG Export Plug-In . SVG Version: 2.1.1 Build 9)  -->
  <defs>
    <style>
      .st0 {
        fill: #00883a;
      }

      .st1 {
        fill: #098b40;
      }
    </style>
  </defs>
  <path class="st0" d="M30.3,11.4c0,0,.1.2.1.3,0,.3,0,.7.1,1s0,.3,0,.4c-1-.2-2-.2-2.9-.2s-1.5,0-2.2,0,0,0-.1,0c0,0-.1.6,0,.7,0,.3.6.2.8.2,1.1,0,2.2,0,3.2,0s1.5.2,1.6,1.1,0,1.7,0,2.5,0,1.3-.6,1.7-1,0-1.6.1c-2,0-4.1,0-6.2,0s-.5,0-.6-.3l-.5-1.4c.5,0,.9.1,1.4.2.8,0,1.5,0,2.2,0s1.3,0,2,0c0,0,.1-.2.1-.3,0-.2,0-.4,0-.5-.3,0-.7,0-1,0-1,0-2.1,0-3.1,0s-.6,0-.9,0c-.5-.1-.8-.6-.8-1.1,0-1.1,0-2.2,0-3.3,0-.4.4-.8.7-1h8.3Z"/>
  <path class="st0" d="M8.4,11.4l.4,1.8c-.4-.2-.9-.2-1.3-.3s-.7,0-1.1,0-.6,0-.9,0v4.7s0,0,0,0c.4,0,.9,0,1.2,0,1.1,0,2.2,0,3.3,0s1.6,0,2.4-.2c-.1.4-.2.8-.4,1.2s-.1.4-.3.4,0,0,0,0c-3,0-6.1,0-9.1,0-.5,0-1.1-.2-1.4-.7s0-.2,0-.2v-5.5c0-.1,0-.3.1-.4.2-.4.5-.6.9-.8h6.4Z"/>
  <path class="st0" d="M20.8,11.4v1.4s-3.4,0-3.4,0v1.5c0,0,0,0,0,0,.7.1,1.4,0,2,0h1.2c.1.3,0,.8,0,1.3h-3.3s0,1.8,0,1.8c.7,0,1.5,0,2.2,0s.4,0,.6,0,.4,0,.6,0l-.3,1.6h-7.5c0-.1,0-.2,0-.3.1-.7.2-1.4.2-2.1s-.1-1.5,0-2.3,0-1.1,0-1.6-.2-.9-.4-1.3h8Z"/>
  <path class="st0" d="M12.1,11.4v1.1h-2.7s0,0,0,0v-1h2.7Z"/>
  <path class="st0" d="M12.5,17.1h-3.1s0,0,0,0v-4h2.7c0,0,.1.4.1.4,0,1.1-.2,2.2.2,3.3s0,.2.1.3Z"/>
  <path class="st1" d="M10.3,20.6s-.1,0-.1,0c0,0,0-.7,0-.7s.1,0,.1,0l.3.6v-.6s.1,0,.1,0c0,0,0,.7,0,.7s-.1,0-.1,0l-.3-.6v.6Z"/>
  <path class="st1" d="M7.2,19.8h.1s.3.6.3.6v-.5s0,0,.1,0v.8c0,0-.1,0-.2,0l-.3-.5v.5s-.1,0-.1,0v-.7Z"/>
  <path class="st1" d="M28.3,19.8c.2,0,.3.2.2.3s-.1,0-.1,0c0,0,.2.3.2.3,0,0-.1,0-.1,0s-.1-.3-.2-.3-.1,0-.2,0v.3s-.1,0-.1,0v-.7s0,0,0,0c0,0,.2,0,.3,0ZM28.1,19.9v.2c.1,0,.3,0,.3-.1s-.2-.1-.3-.1Z"/>
  <path class="st1" d="M18.9,19.8h.3s.1,0,.2,0c.3.1.2.6,0,.7s-.1,0-.1,0h-.3s0,0,0,0v-.7s0,0,0,0ZM19,20.5c.2,0,.4,0,.4-.3s-.2-.3-.4-.3v.5Z"/>
  <path class="st1" d="M30.2,19.8c.2,0,.3.2.2.4s-.1,0-.1,0c0,0,.2.3.2.3,0,0-.1,0-.1,0s-.1-.3-.2-.3-.1,0-.2,0v.3s-.1,0-.1,0v-.7s0,0,0,0c0,0,.2,0,.3,0ZM30,19.9v.2c.1,0,.3,0,.3-.1s-.2-.1-.3-.1Z"/>
  <path class="st1" d="M24,20.6s-.1,0-.1,0c0,0,0-.7,0-.7s.1,0,.1,0l.3.6v-.6h.1v.8s-.1,0-.1,0l-.3-.6v.6Z"/>
  <path class="st1" d="M13.7,19.8s.1,0,.1,0l.3.6v-.6s.1,0,.1,0c0,0,0,.7,0,.7s-.1,0-.1,0l-.3-.6v.6h-.1v-.8Z"/>
  <path class="st1" d="M5.2,20.6s0,0,0,0h0c0,0-.2,0-.3,0-.4,0-.4-.8.1-.8s.2,0,.2.2c-.1,0-.1,0-.2,0-.3,0-.4.2-.3.4s.4.1.4,0h-.2s0-.1,0-.1h.3c0,0,0,.3,0,.4Z"/>
  <path class="st1" d="M2.6,19.8c.1,0,.3,0,.4.1.1.2,0,.6-.2.6-.5,0-.6-.7-.2-.7ZM2.6,19.9c-.3,0-.2.7.1.5s.2-.6-.1-.5Z"/>
  <path class="st1" d="M9.8,19.8c.2,0,.3.1.2.3s-.1.1-.1.1.2.3.2.3c0,0-.1,0-.1,0s-.1-.3-.2-.3-.1,0-.2,0v.3h-.1v-.7s0,0,0,0c0,0,.2,0,.3,0ZM9.6,20.2c.1,0,.3,0,.3-.1s0,0,0,0h-.2v.2Z"/>
  <path class="st1" d="M16.2,20.6v-.7h.3c0,0,.2,0,.2,0,.1.1.2.4,0,.6s-.1,0-.2,0h-.4ZM16.4,20.5c.2,0,.4,0,.4-.3s-.2-.3-.4-.3v.5Z"/>
  <path class="st1" d="M13.1,19.8c.3,0,.5.2.4.5s-.3.4-.5.2-.2-.6.1-.7ZM13.1,19.9c-.3,0-.2.6,0,.6s.3-.6,0-.6Z"/>
  <path class="st1" d="M5.9,19.8c.3,0,.5.1.4.4s-.2.3-.4.3c-.4,0-.3-.7,0-.7ZM6,19.9c-.3,0-.2.6,0,.6s.3-.6,0-.6Z"/>
  <path class="st1" d="M23.1,19.9c0,0,.2-.1.3,0,.4,0,.4.8-.1.8s-.4-.5-.2-.7ZM23.2,20c-.1.1,0,.5.1.5s.3-.2.3-.4-.2-.3-.4-.1Z"/>
  <path class="st1" d="M29.3,19.8c.6,0,.6.7.2.7s-.5-.7-.2-.7ZM29.3,19.9c-.2,0-.2.5,0,.5.4.1.4-.6,0-.5Z"/>
  <polygon class="st1" points="27.8 19.8 27.8 19.9 27.4 19.9 27.4 20.1 27.7 20.1 27.7 20.2 27.4 20.2 27.4 20.5 27.8 20.5 27.8 20.6 27.3 20.6 27.3 20.6 27.3 19.9 27.3 19.8 27.8 19.8"/>
  <polygon class="st1" points="18.7 19.8 18.7 19.9 18.3 19.9 18.3 20.1 18.6 20.1 18.6 20.2 18.3 20.2 18.3 20.5 18.7 20.5 18.7 20.6 18.1 20.6 18.1 20.6 18.1 19.9 18.1 19.8 18.7 19.8"/>
  <path class="st1" d="M25.6,20c-.1,0,0,0-.2,0-.1,0-.4,0-.3.1s.5,0,.4.3-.3.2-.4.2-.2,0-.2-.2c0-.1.1,0,.2,0,0,0,.3,0,.3,0s-.5,0-.5-.3.5-.3.6,0Z"/>
  <path class="st1" d="M19.8,19.8v.5c0,0,.1.1.2.1s.2,0,.2-.1v-.5s.1,0,.1,0,0,.4,0,.5c0,.2,0,.3-.3.3-.3,0-.3-.1-.3-.3s0-.3,0-.4,0,0,.1,0Z"/>
  <path class="st1" d="M4.4,19.9h-.4v.2h.3c0,.1-.3.1-.3.1v.2h.4c0,.1-.6.1-.6.1v-.7h.5s0,0,0,.1Z"/>
  <path class="st1" d="M9.3,19.9h-.4v.2h.3c0,.1-.3.1-.3.1v.2h.4c0,.1-.6.1-.6.1v-.7h.5s0,0,0,.1Z"/>
  <path class="st1" d="M25.9,19.8v.5c0,.1.2.2.3.1s0,0,0,0v-.5c0,0,.1,0,.1,0,0,0,0,.5,0,.5,0,.2-.2.2-.4.2s-.2-.1-.2-.2v-.6h.1Z"/>
  <path class="st1" d="M17.2,19.9v.2h.3c0,.1-.3.1-.3.1v.2h.4c0,.1-.5.1-.5.1v-.7h.5s0,.1,0,.1h-.4Z"/>
  <path class="st1" d="M11.6,20.6s0,0-.1,0c0,0,0-.2,0-.2,0,0-.3,0-.3,0,0,0,0,.2-.2.2,0,0,.2-.7.3-.7s.1,0,.2,0c0,0,.3.7.3.7ZM11.2,20.3h.2v-.3c-.1,0-.2.3-.2.3Z"/>
  <path class="st1" d="M21.5,19.8s.2.6.3.7c-.2,0-.1,0-.2-.2s-.3,0-.3,0,0,.2,0,.2,0,0-.1,0l.3-.7s.1,0,.1,0ZM21.6,20.3s0-.3,0-.3,0,0,0,0v.3c-.1,0,.1,0,.1,0Z"/>
  <path class="st1" d="M15.1,20.6c-.2,0-.1-.1-.2-.2s-.2,0-.3,0c0,0,0,.2-.2.2,0,0,.2-.7.3-.7s.1,0,.2,0l.3.7ZM14.6,20.3h.2c0,0,0-.2,0-.3s0,0,0,0,0,.3-.1.3Z"/>
  <path class="st1" d="M20.9,20s0,0-.1-.1c-.3,0-.4.5,0,.5s.2-.2.3-.1c0,.1-.1.2-.2.2-.5,0-.5-.7-.1-.8s.3,0,.4.2c0,0,0,0-.1,0Z"/>
  <path class="st1" d="M12.2,20s0,0-.1-.1c-.3,0-.3.6,0,.6s.1-.2.3-.1c0,.2-.2.2-.4.2-.4,0-.4-.9.2-.7s.2,0,.2.1,0,0-.1,0Z"/>
  <path class="st1" d="M22.5,20.4c0,.2-.2.2-.4.2-.4,0-.4-.8.1-.8s.3.2.1.2,0-.1-.2-.1c-.4,0-.3.7,0,.5s0-.1.2,0Z"/>
  <path class="st1" d="M26.7,20.3v.3h-.1v-.7h.3s.1,0,.1,0c0,0,.1,0,.1.2,0,.3-.2.3-.4.3ZM26.7,20.2c.1,0,.3,0,.3-.1s-.2-.1-.3-.1v.3Z"/>
  <path class="st1" d="M2.1,20.4s.1,0,.1,0c0,0-.1.2-.2.2-.5.1-.6-.7-.2-.7s.3,0,.4.2c-.1.1-.1,0-.2,0-.4-.1-.4.6,0,.5s.1-.1.1-.1Z"/>
  <path class="st1" d="M8.6,19.9h-.3v.6s-.1,0-.1,0v-.6h-.3c0,0,0-.1,0-.1s.5,0,.6,0,0,0,0,.1Z"/>
  <path class="st1" d="M15.4,19.8v.6h.4c0,.1-.5.1-.5.1,0,0,0,0,0,0v-.7s.1,0,.1,0Z"/>
  <polygon class="st1" points="3.3 19.8 3.3 20.5 3.7 20.5 3.7 20.6 3.2 20.6 3.2 19.8 3.3 19.8"/>
  <path class="st1" d="M12.6,20.6h-.1v-.7s.1,0,.1,0v.7Z"/>
  <rect class="st0" x="5.4" y="19.8" width=".1" height=".7"/>
  <rect class="st0" x="6.9" y="19.8" width=".1" height=".7"/>
  <rect class="st0" x="22.7" y="19.8" width=".1" height=".7"/>
  <rect class="st0" x="28.7" y="19.8" width=".1" height=".7"/>
  <path class="st1" d="M23.5,19.6s0,.2,0,.2c0,0,0,0,0,0,0,0,0-.2,0-.2,0,0,.1,0,.1,0Z"/>
</svg>